<?xml version="1.0" standalone="no"?>
<!DOCTYPE svg PUBLIC "-//W3C//DTD SVG 20010904//EN"
 "http://www.w3.org/TR/2001/REC-SVG-20010904/DTD/svg10.dtd">
<svg version="1.0" xmlns="http://www.w3.org/2000/svg"
 width="667.000000pt" height="664.000000pt" viewBox="0 0 667.000000 664.000000"
 preserveAspectRatio="xMidYMid meet">

<g transform="translate(0.000000,664.000000) scale(0.100000,-0.100000)"
fill="#000000" stroke="none">
<path d="M124 6528 c3 -62 8 -264 11 -448 3 -184 8 -385 11 -447 9 -169 -17
-256 -102 -338 l-44 -43 0 -1194 0 -1194 57 3 c32 2 81 5 108 6 28 2 56 5 64
8 9 2 17 -8 23 -30 7 -26 6 -37 -8 -52 -16 -17 -16 -19 -1 -19 20 0 23 -28 5
-35 -7 -3 -62 -7 -123 -9 -60 -3 -113 -5 -117 -5 -5 -1 -8 -12 -8 -27 l0 -25
128 7 c144 9 168 9 271 6 41 -1 71 -5 68 -9 -7 -6 -183 -12 -370 -12 l-97 0 0
-118 0 -118 122 -3 c67 -2 123 -4 123 -5 0 -1 -2 -51 -5 -112 l-5 -110 -117
-3 -118 -3 0 -29 0 -30 124 0 c73 0 127 4 131 10 9 14 35 12 69 -5 16 -9 55
-15 92 -15 38 0 64 -4 64 -11 0 -5 5 -7 10 -4 6 4 10 -9 9 -32 -1 -21 -3 -30
-6 -20 -3 11 -11 16 -19 13 -12 -5 -19 11 -15 37 2 11 -27 9 -34 -3 -4 -6 -3
-10 2 -9 20 3 25 -2 13 -16 -7 -8 -21 -15 -31 -15 -10 0 -24 -9 -31 -20 -7
-11 -17 -20 -22 -20 -5 0 -6 3 -3 7 12 11 -24 42 -41 36 -14 -5 -15 -3 -4 8 6
7 12 22 11 34 0 11 -3 15 -5 10 -2 -6 -19 -9 -38 -7 -31 4 -35 1 -56 -42 -17
-36 -27 -46 -46 -46 -26 0 -30 10 -13 27 7 7 9 23 5 38 -7 26 -8 26 -86 23
l-80 -3 0 -122 0 -123 160 0 c88 0 160 -4 160 -9 0 -11 -30 -25 -47 -22 -7 1
-13 -5 -13 -14 0 -8 -4 -15 -10 -15 -5 0 -10 5 -10 10 0 6 -11 10 -24 10 -21
0 -23 -3 -17 -32 6 -28 11 -33 34 -30 26 3 27 2 24 -50 l-4 -53 -37 -1 c-26
-1 -36 3 -32 12 4 9 -3 10 -26 3 -35 -10 -48 -5 -48 19 -1 15 -3 14 -15 -3
-28 -40 -36 -45 -65 -45 -26 0 -30 -4 -30 -27 l0 -28 177 3 c98 1 183 2 188 2
6 0 112 -4 238 -8 143 -4 226 -11 225 -17 -2 -5 -13 -9 -25 -7 -13 1 -23 -2
-23 -8 0 -5 -5 -10 -11 -10 -5 0 -7 5 -4 10 7 11 -15 13 -39 4 -24 -9 -19 -33
9 -44 15 -6 25 -17 25 -30 0 -27 -14 -25 -28 3 l-11 22 0 -22 c-1 -12 -5 -25
-11 -28 -20 -13 -10 -27 15 -21 25 6 36 -8 12 -17 -7 -4 -6 -6 4 -6 20 -1 33
-42 17 -52 -7 -4 -21 -3 -31 3 -11 5 -35 7 -55 3 -32 -6 -34 -5 -23 9 11 13
11 16 -3 16 -9 0 -16 -4 -16 -9 0 -18 -59 -23 -75 -7 -9 8 -21 13 -28 10 -17
-6 -17 37 -1 53 11 11 8 53 -3 53 -3 0 -19 -8 -36 -17 -18 -10 -33 -18 -35
-19 -1 0 1 -15 4 -33 5 -25 11 -31 25 -28 21 6 15 -18 -6 -27 -22 -8 -35 18
-39 78 -2 42 0 56 10 56 8 0 14 -5 14 -11 0 -8 5 -8 15 1 8 7 15 18 15 25 0
16 -82 39 -108 31 -14 -5 -27 0 -40 15 -21 22 -42 19 -42 -7 0 -8 10 -14 25
-14 33 0 51 -33 29 -55 -10 -10 -15 -27 -12 -45 4 -25 2 -29 -13 -25 -18 6
-35 -20 -19 -30 15 -9 12 -25 -5 -25 -8 0 -15 7 -15 15 0 8 -6 12 -15 9 -8 -3
-13 -11 -12 -17 1 -7 -4 -11 -12 -9 -8 2 -43 3 -78 3 -37 0 -61 4 -58 10 9 13
-19 11 -33 -3 -7 -7 -28 -11 -47 -10 -35 3 -35 2 -35 -38 l0 -40 108 -1 107
-2 -90 -8 c-50 -4 -98 -5 -107 -3 -17 5 -18 -31 -17 -635 l0 -641 389 0 389 0
-19 66 c-10 37 -26 78 -37 93 -37 51 -93 190 -93 229 0 64 29 141 56 148 29 7
64 -12 64 -35 0 -19 -42 -37 -60 -26 -14 8 -30 -38 -30 -83 0 -36 33 -119 61
-154 11 -13 32 -18 92 -19 67 -2 77 -4 77 -20 0 -16 -8 -18 -70 -16 -39 1 -70
1 -70 -1 0 -2 6 -15 14 -30 8 -15 20 -55 26 -90 l13 -62 496 0 497 0 59 31
c33 17 74 45 90 63 29 32 106 67 186 85 l39 9 -6 -38 c-4 -23 -2 -40 5 -44 19
-12 12 -56 -14 -81 l-24 -25 114 0 115 0 0 43 c0 24 3 46 6 49 6 6 105 -51
134 -77 15 -13 114 -15 840 -15 727 0 821 2 810 15 -17 20 -5 62 27 91 20 19
24 27 15 36 -7 7 -12 22 -12 35 0 36 -36 66 -70 58 -24 -5 -32 -2 -46 20 -10
15 -23 24 -31 21 -8 -3 -16 1 -19 9 -3 8 -14 17 -25 20 -14 5 -18 12 -13 30 5
19 0 27 -26 40 -25 13 -31 21 -26 39 10 39 375 776 384 776 5 0 53 -23 106
-51 l97 -51 -3 -117 c-3 -72 -9 -129 -18 -149 -14 -31 -13 -35 4 -47 17 -13
17 -18 6 -47 -7 -18 -18 -39 -24 -46 -7 -10 -4 -18 12 -30 21 -17 21 -22 22
-299 l0 -283 -29 0 c-17 0 -31 6 -35 16 -4 11 -14 14 -35 9 -24 -5 -32 -1 -50
23 -25 35 -59 38 -108 10 -34 -20 -40 -32 -24 -43 6 -3 4 -19 -5 -40 -8 -19
-14 -37 -14 -40 0 -3 80 -5 179 -5 l179 0 6 28 c3 15 3 524 0 1131 l-5 1104
495 -6 496 -7 0 29 c0 45 -10 61 -36 61 -15 0 -24 6 -24 15 0 10 11 15 35 15
34 0 34 1 46 59 l13 59 50 6 c71 8 312 -3 426 -20 209 -31 373 -94 468 -180
49 -44 67 -54 96 -54 36 0 36 0 36 43 0 63 -26 83 -213 163 -72 31 -339 107
-412 117 -24 3 -22 4 11 6 68 2 275 -44 484 -108 36 -11 80 -24 98 -30 31 -9
32 -9 32 18 0 28 -2 29 -87 46 -49 9 -153 33 -233 52 -228 54 -319 64 -517 60
-184 -4 -197 -1 -154 42 10 10 25 32 33 47 l13 29 140 -1 c160 -1 239 -15 572
-100 117 -30 217 -54 223 -54 6 0 10 36 10 93 l0 94 -157 6 c-87 4 -349 7
-583 7 -234 0 -638 3 -897 7 l-473 6 0 45 0 45 1055 -7 1055 -8 0 51 0 51
-125 0 -125 0 -1 73 c-1 39 -1 129 1 200 2 112 0 127 -14 127 -23 0 -33 30
-13 41 13 8 15 31 13 157 l-3 147 34 76 c18 42 33 88 33 103 0 24 -3 26 -45
26 l-45 0 0 46 c0 44 1 46 25 40 35 -9 75 3 68 20 -3 9 -21 14 -49 14 l-44 0
0 77 0 76 145 -6 145 -6 0 35 0 35 -147 -2 -148 -1 -3 620 -2 619 31 7 c17 3
85 6 150 6 l119 0 0 575 0 575 -1240 0 -1240 0 0 -122 c0 -149 -10 -187 -61
-243 -67 -73 -70 -73 -561 -74 -238 -1 -636 -4 -885 -8 -422 -6 -453 -5 -459
11 -4 10 -3 21 2 26 5 5 410 14 901 19 490 6 902 15 915 20 26 10 70 54 87 88
6 13 11 75 11 152 l0 131 -1542 0 -1541 0 7 -146 c4 -95 12 -156 21 -174 20
-39 72 -80 103 -82 15 -1 248 -2 517 -2 483 -1 490 -1 490 -21 0 -20 -8 -20
-495 -23 -272 -1 -510 0 -528 3 -41 8 -97 56 -125 109 -18 35 -22 62 -25 189
l-4 147 -450 0 -450 0 6 -112z m3793 56 c-3 -3 -12 -4 -19 -1 -8 3 -5 6 6 6
11 1 17 -2 13 -5z m310 -190 c-3 -3 -12 -4 -19 -1 -8 3 -5 6 6 6 11 1 17 -2
13 -5z m-57 -344 c11 -16 8 -725 -2 -736 -7 -7 -556 -15 -578 -9 -13 4 -15 54
-15 369 0 200 4 368 8 373 5 4 99 10 210 13 327 8 366 7 377 -10z m-1110 -135
c0 -35 -4 -67 -10 -70 -6 -4 -10 8 -10 29 0 29 -4 36 -20 36 -11 0 -20 4 -20
9 0 5 9 11 20 14 14 3 20 14 20 32 0 15 4 24 10 20 6 -3 10 -35 10 -70z m155
50 c1 -11 3 -24 5 -30 1 -5 2 -29 1 -52 l-1 -43 -55 0 c-30 0 -55 3 -56 8 -5
72 -4 85 8 98 8 8 10 14 4 14 -23 0 -9 19 17 23 52 8 75 3 77 -18z m79 -23
c-1 -33 -7 -50 -27 -70 -36 -35 -46 -21 -13 18 32 38 34 70 6 70 -11 0 -20 7
-20 16 0 11 8 14 28 12 25 -3 27 -6 26 -46z m56 -28 c0 -36 -4 -64 -10 -64 -6
0 -10 30 -10 71 0 44 4 68 10 64 6 -3 10 -35 10 -71z m81 36 c31 0 48 -4 44
-10 -3 -5 -31 -10 -61 -10 -50 0 -54 2 -54 23 0 31 14 45 18 18 3 -18 10 -21
53 -21z m-813 14 c8 -14 10 -14 21 0 16 19 52 21 69 4 9 -9 12 -9 12 0 0 24
28 11 35 -15 l8 -28 10 28 c11 26 37 38 37 16 0 -8 5 -8 15 1 20 17 42 6 48
-22 4 -20 4 -20 6 5 0 15 6 27 11 27 6 0 10 -30 10 -71 0 -44 -4 -68 -10 -64
-5 3 -11 18 -11 33 -1 23 -2 23 -6 5 -6 -28 -31 -49 -44 -36 -5 5 -11 24 -14
42 -6 47 -10 47 -24 1 -15 -50 -36 -51 -51 -2 -17 52 -25 57 -25 15 0 -49 -25
-64 -65 -41 -17 9 -30 13 -30 8 0 -16 -49 -23 -65 -10 -18 15 -20 91 -3 108
17 17 55 15 66 -4z m312 -54 c0 -40 -4 -70 -10 -70 -6 0 -10 30 -10 70 0 40 4
70 10 70 6 0 10 -30 10 -70z m74 -25 c22 -34 11 -48 -14 -17 -18 22 -19 22
-25 2 -3 -11 -11 -20 -17 -20 -6 0 -7 8 -3 18 4 9 9 33 12 52 8 59 16 68 23
28 4 -20 14 -48 24 -63z m473 23 c-2 -9 -19 -12 -50 -10 -37 3 -47 1 -47 -12
0 -11 13 -16 48 -18 64 -4 55 -23 -10 -23 l-53 0 -3 38 -3 37 61 0 c45 0 61
-3 57 -12z m-74 -108 c14 -20 15 -20 20 -2 3 15 13 19 38 18 l34 -2 0 -69 c0
-63 -2 -70 -20 -71 -11 -1 -27 -4 -36 -8 -9 -4 -34 -6 -55 -4 -36 3 -39 5 -43
38 l-4 35 -6 -30 -6 -30 -127 -2 c-70 -1 -132 -4 -138 -8 -7 -4 -14 2 -17 14
-7 27 -29 27 -36 1 -3 -11 -10 -20 -17 -20 -7 0 -14 9 -17 20 -3 11 -9 20 -13
20 -4 0 -7 24 -6 53 l1 52 58 2 57 1 0 -61 c0 -47 3 -58 12 -49 7 7 38 12 70
12 32 0 58 4 58 8 0 4 -29 7 -65 6 -47 -1 -65 2 -65 11 0 7 8 16 18 20 16 6
16 7 0 16 -10 6 -18 17 -18 24 0 12 14 15 60 15 47 0 60 -3 60 -15 0 -9 -7
-18 -16 -22 -13 -5 -13 -7 -2 -14 22 -15 28 -10 28 21 0 28 3 30 35 30 36 0
46 -15 23 -38 -9 -9 -9 -12 0 -12 21 0 13 -27 -10 -35 l-23 -7 25 -7 c24 -7
25 -5 28 46 3 45 6 53 22 53 11 0 20 -5 20 -12 0 -8 6 -6 17 5 23 22 39 21 56
-3z m-877 -10 c5 -48 7 -52 13 -20 l6 35 118 2 c84 2 117 -1 117 -9 0 -9 3 -9
12 0 7 7 36 12 64 12 62 0 67 -7 56 -90 l-7 -55 -55 0 -55 0 0 37 c0 20 -3 40
-7 44 -5 4 -8 -14 -8 -39 l0 -47 -55 0 -55 0 -1 33 c-2 27 -2 28 -6 7 -7 -37
-16 -42 -49 -25 -16 8 -39 15 -51 15 -12 0 -24 8 -26 18 -3 9 -5 2 -6 -15 -1
-22 -6 -33 -16 -33 -8 0 -15 4 -15 9 0 6 -19 11 -42 13 l-43 3 -3 49 c-5 71
-1 75 60 73 39 -1 53 -6 54 -17z m434 -292 c0 -5 -4 -8 -9 -8 -5 0 -4 -11 2
-25 17 -36 27 -31 27 15 0 22 5 40 10 40 6 0 10 -8 10 -17 0 -14 3 -13 21 6
20 21 22 21 46 6 21 -14 27 -15 35 -4 8 11 11 12 15 1 4 -10 10 -10 29 3 13 8
24 11 24 5 0 -5 7 -10 15 -10 8 0 15 -4 15 -10 0 -5 -4 -10 -10 -10 -6 0 -5
-10 2 -25 8 -19 8 -31 0 -50 -23 -50 -68 -19 -59 40 3 19 2 35 -4 35 -5 0 -9
-22 -9 -49 0 -28 -4 -53 -10 -56 -5 -3 -10 2 -10 13 0 29 -12 34 -27 12 -26
-37 -61 -15 -65 42 0 13 -4 3 -7 -22 l-6 -45 -46 -3 -47 -3 -4 38 c-4 25 0 44
9 54 11 13 11 18 2 21 -10 3 -10 8 1 20 11 12 19 13 32 4 10 -6 18 -14 18 -18z
m283 -28 c8 0 8 -3 -1 -12 -7 -7 -12 -25 -12 -40 0 -15 -4 -28 -10 -28 -6 0
-10 28 -10 63 0 67 13 101 18 48 2 -17 8 -31 15 -31z m93 47 c11 4 14 -8 14
-62 l0 -67 -32 6 c-18 4 -43 7 -56 8 -18 0 -22 4 -16 17 4 9 9 35 12 59 5 56
22 54 22 -2 0 -25 4 -47 9 -50 5 -4 9 13 9 37 -1 44 12 82 19 60 3 -7 11 -9
19 -6z m117 -1 c10 -11 17 -12 25 -4 16 16 24 -10 19 -62 -4 -51 -17 -60 -84
-60 -54 0 -63 6 -41 28 10 10 10 17 0 32 -6 11 -12 29 -12 39 0 37 65 55 93
27z m-1362 -23 c1 -16 2 -46 3 -68 l1 -40 -48 -3 c-51 -3 -71 14 -47 43 9 10
9 15 1 15 -6 0 -11 5 -11 10 0 6 18 10 40 10 29 0 40 4 40 15 0 10 -10 15 -34
15 -34 0 -52 11 -39 24 3 3 26 6 50 6 40 0 43 -2 44 -27z m169 -1 c0 -14 8
-17 45 -14 56 5 60 22 4 22 -24 0 -38 4 -34 10 10 16 92 12 99 -5 11 -29 -5
-45 -48 -47 l-41 -1 43 -4 c28 -3 42 -8 39 -16 -2 -7 -9 -12 -14 -12 -6 0 -15
-3 -19 -7 -4 -5 5 -8 19 -8 23 0 40 -18 20 -21 -62 -7 -103 -6 -103 2 0 6 9
13 20 16 28 7 25 20 -5 25 -22 5 -25 2 -25 -23 0 -16 -4 -29 -10 -29 -6 0 -10
30 -10 71 0 44 4 68 10 64 6 -3 10 -14 10 -23z m245 -36 c21 -7 38 2 29 16 -4
6 0 14 7 19 10 6 11 9 2 9 -7 0 -13 5 -13 10 0 16 40 12 46 -5 4 -8 -1 -26
-10 -40 -9 -13 -16 -33 -16 -45 0 -17 6 -20 40 -20 22 0 40 -5 40 -11 0 -6
-19 -9 -47 -7 -44 3 -48 5 -51 31 -2 19 -8 27 -17 23 -7 -2 -21 1 -31 9 -15
11 -22 10 -41 -2 -13 -9 -27 -12 -31 -8 -4 4 3 14 16 22 12 9 22 23 22 33 0
30 13 31 26 2 6 -16 19 -32 29 -36z m110 54 c6 9 9 9 15 -1 7 -10 11 -10 24 0
25 21 48 -1 52 -49 5 -46 -8 -70 -37 -70 -24 0 -35 43 -20 76 9 19 8 24 -4 24
-11 0 -15 -11 -15 -36 0 -31 -2 -35 -15 -24 -12 10 -15 10 -15 -1 0 -8 -3 -9
-9 -3 -6 5 -7 28 -4 52 3 25 9 38 13 32 6 -9 9 -9 15 0z m138 -42 c9 -5 9 -10
-1 -20 -6 -6 -12 -25 -12 -41 0 -16 -4 -26 -10 -22 -12 7 -14 118 -2 129 4 4
9 -3 11 -16 1 -12 8 -26 14 -30z m107 7 c0 -25 -4 -45 -10 -45 -5 0 -10 16
-10 35 0 34 -1 35 -40 35 -22 0 -40 5 -40 10 0 6 23 10 50 10 l50 0 0 -45z
m-920 25 c0 -5 -4 -10 -10 -10 -16 0 -11 -52 7 -72 19 -22 10 -36 -12 -18 -12
10 -18 10 -30 0 -12 -10 -15 -10 -15 3 0 9 5 19 10 22 6 3 10 19 10 36 0 16
-4 29 -10 29 -5 0 -10 5 -10 10 0 6 14 10 30 10 17 0 30 -4 30 -10z m40 -55
c0 -37 -4 -65 -10 -65 -6 0 -10 28 -10 65 0 37 4 65 10 65 6 0 10 -28 10 -65z
m170 45 c0 -27 28 -25 32 3 2 13 7 1 12 -30 9 -62 4 -73 -35 -73 -29 0 -29 0
-29 60 0 33 4 60 10 60 6 0 10 -9 10 -20z m660 -50 c0 -25 4 -30 25 -30 14 0
25 -4 25 -10 0 -5 -22 -10 -50 -10 -27 0 -50 5 -50 10 0 6 7 10 15 10 10 0 15
10 15 30 0 17 5 30 10 30 6 0 10 -13 10 -30z m-292 -42 c-3 -8 -26 -14 -56
-16 -42 -2 -52 0 -52 12 0 13 12 16 56 16 40 0 55 -4 52 -12z m-2038 -810 c0
-4 -4 -8 -10 -8 -6 0 -11 -67 -12 -177 -1 -135 -3 -157 -7 -93 -10 142 -2 287
15 287 8 0 14 -4 14 -9z m-410 -82 c0 -3 -4 -8 -10 -11 -5 -3 -10 -1 -10 4 0
6 5 11 10 11 6 0 10 -2 10 -4z m30 0 c0 -3 -4 -8 -10 -11 -5 -3 -10 -1 -10 4
0 6 5 11 10 11 6 0 10 -2 10 -4z m464 -59 c-2 -7 5 -22 16 -34 11 -12 20 -25
20 -28 0 -3 9 -16 21 -28 33 -35 38 -59 25 -121 -10 -53 -26 -68 -26 -25 0 10
-11 29 -25 43 -14 14 -24 29 -23 33 4 18 -15 74 -29 81 -8 5 -17 27 -20 50 -5
40 -4 42 20 42 17 0 25 -4 21 -13z m-444 -28 c0 -9 -70 -17 -75 -8 -3 3 -3 8
-1 10 7 7 76 4 76 -2z m3531 -53 c3 -43 55 -159 68 -151 6 3 13 21 17 40 3 19
10 35 16 35 5 0 16 16 24 35 8 20 21 35 31 35 19 0 53 -28 53 -43 0 -6 -9 -2
-19 7 -14 12 -21 14 -26 6 -7 -11 0 -30 26 -82 5 -10 9 -30 10 -45 l1 -28 9
25 c6 18 8 6 5 -40 -2 -39 -13 -86 -27 -117 -21 -49 -25 -53 -58 -53 -19 0
-32 -3 -28 -6 3 -4 0 -22 -8 -41 -8 -20 -15 -46 -15 -58 0 -13 -10 -54 -21
-91 -20 -64 -21 -76 -10 -174 6 -58 16 -122 23 -143 13 -43 85 -122 147 -161
34 -22 40 -30 32 -44 -8 -14 -3 -19 32 -29 59 -18 65 -17 59 13 -2 14 1 36 8
50 8 13 11 25 9 27 -2 2 -16 11 -31 20 -22 14 -28 25 -28 52 0 18 -9 50 -21
70 -23 39 -20 79 7 89 22 8 50 -18 58 -52 8 -34 98 -212 107 -212 4 0 18 14
30 31 21 29 21 33 6 44 -21 15 -22 51 -1 59 8 3 12 10 9 16 -4 6 -11 8 -16 5
-5 -4 -9 7 -9 23 0 50 12 92 26 92 11 0 11 6 3 27 -5 15 -8 37 -5 49 4 13 1
24 -7 27 -23 7 5 62 35 65 33 4 35 -1 48 -148 14 -153 28 -214 65 -275 16 -28
41 -73 53 -100 14 -30 43 -66 72 -90 27 -22 51 -49 54 -60 10 -43 27 -266 20
-276 -5 -8 -33 -10 -88 -6 -69 5 -83 9 -99 29 -11 13 -23 23 -28 23 -14 0 -29
27 -29 53 0 13 -6 22 -15 22 -19 0 -19 -24 -1 -42 7 -8 17 -24 20 -36 4 -12
11 -20 16 -17 4 3 10 -2 14 -10 7 -18 -39 -22 -50 -4 -3 6 -20 17 -38 24 l-31
14 25 9 25 10 -35 13 c-19 7 -39 12 -43 11 -5 -1 -24 11 -43 28 -28 24 -39 28
-54 20 -28 -15 -29 -13 -20 22 5 17 7 41 5 52 -4 17 3 25 35 40 22 10 42 27
45 37 3 9 31 37 63 61 96 73 96 73 79 98 l-15 21 -30 -30 c-16 -17 -32 -28
-35 -25 -3 3 -8 1 -12 -5 -3 -6 1 -11 9 -11 16 0 21 -12 9 -23 -3 -4 -12 -2
-18 3 -9 7 -23 -2 -49 -35 -40 -48 -77 -59 -95 -27 -9 15 -12 15 -21 2 -5 -8
-10 -26 -10 -39 0 -13 -8 -29 -17 -36 -14 -10 -15 -16 -5 -28 7 -8 14 -34 15
-58 3 -39 6 -44 28 -43 13 0 34 4 47 8 16 5 22 3 22 -7 0 -8 6 -20 14 -26 8
-7 14 -20 13 -30 -1 -15 -8 -16 -44 -11 -24 4 -43 4 -43 1 0 -12 15 -28 33
-34 28 -11 19 -23 -18 -24 -19 -1 -39 5 -46 13 -6 8 -15 11 -20 9 -12 -8 -51
128 -53 181 0 23 -7 49 -13 56 -20 19 -16 32 22 67 45 40 49 85 9 95 -17 5
-32 2 -43 -9 -20 -17 -33 -11 -24 12 5 12 0 12 -33 -2 -154 -67 -168 -69 -359
-70 -127 0 -191 4 -219 14 -36 13 -38 15 -33 48 7 42 30 61 75 61 52 0 58 14
27 66 -15 25 -31 48 -36 51 -12 8 1 37 26 57 11 10 43 29 71 43 52 25 159 115
137 115 -6 0 -15 -5 -18 -10 -12 -19 -105 -60 -158 -71 -29 -5 -73 -7 -99 -4
-53 8 -160 68 -251 142 -106 86 -122 107 -145 180 -35 114 -36 135 -7 188 14
27 25 54 25 60 0 7 7 18 16 26 8 7 13 20 11 30 -5 19 18 29 70 29 34 0 117 32
127 49 4 6 16 11 27 11 20 0 20 -14 -2 -84 -14 -44 -2 -44 17 -1 9 21 14 52
11 68 -3 24 1 32 27 48 25 15 27 19 11 19 -18 1 -17 2 5 15 32 18 35 18 54 -1
9 -9 31 -18 49 -20 17 -3 54 -9 80 -14 26 -6 62 -10 78 -10 30 0 90 27 97 43
10 21 22 2 22 -35 1 -30 3 -38 9 -28 14 23 17 86 5 101 -6 8 -10 30 -10 49 1
30 5 36 31 41 22 4 34 1 48 -14 9 -10 17 -24 18 -31z m-121 -16 c9 -17 8 -20
-7 -20 -26 0 -47 16 -39 29 11 17 34 13 46 -9z m-3460 -20 c0 -5 -7 -10 -16
-10 -8 0 -12 5 -9 10 3 6 10 10 16 10 5 0 9 -4 9 -10z m50 1 c0 -6 -9 -9 -20
-8 -11 1 -20 5 -20 9 0 4 9 8 20 8 11 0 20 -4 20 -9z m3759 -81 c0 -9 -4 -8
-9 5 -5 11 -9 27 -9 35 0 9 4 8 9 -5 5 -11 9 -27 9 -35z m-3402 -167 c-2 -38
-3 -7 -3 67 0 74 1 105 3 68 2 -38 2 -98 0 -135z m1055 125 c-6 -6 -7 0 -4 19
5 21 7 23 10 9 2 -10 0 -22 -6 -28z m-1077 -186 c-11 -11 -12 6 -6 98 l6 95 3
-94 c1 -51 0 -96 -3 -99z m155 83 c0 -13 10 -32 23 -42 24 -20 33 -43 17 -43
-5 0 -7 -7 -4 -15 9 -21 -13 -19 -38 5 -17 15 -24 17 -30 8 -8 -14 -15 78 -9
125 2 19 41 -16 41 -38z m10 -169 c14 -40 13 -83 -2 -89 -9 -4 -10 -8 -2 -14
6 -4 9 -19 7 -33 -10 -61 -14 -297 -5 -320 8 -19 9 -12 5 31 -4 36 -2 59 6 63
7 5 11 -1 11 -15 0 -12 3 -19 7 -15 8 7 4 96 -4 109 -3 5 -9 3 -14 -4 -7 -11
-9 -10 -9 4 0 11 10 27 23 37 20 17 22 27 24 135 3 222 24 129 25 -114 1 -135
3 -158 14 -143 7 9 14 22 14 29 0 7 7 10 18 7 13 -5 14 -4 3 4 -8 6 -11 18 -6
31 9 29 35 27 35 -4 0 -19 4 -23 18 -19 12 4 14 3 4 -4 -9 -6 -11 -20 -7 -45
l7 -35 75 -4 c85 -3 96 3 97 58 1 19 4 34 7 34 12 0 20 32 14 51 -5 15 -16 19
-49 19 -23 0 -47 -5 -54 -12 -9 -9 -12 -9 -12 0 0 7 -16 12 -40 12 -41 0 -53
13 -24 24 14 5 14 9 3 23 -13 15 -11 16 16 10 27 -6 28 -5 8 5 -28 14 -30 33
-3 35 14 1 22 -6 26 -23 4 -14 9 -22 13 -19 9 10 8 29 -4 38 -6 5 -4 7 5 4 8
-2 16 -13 18 -25 2 -13 11 -22 20 -22 15 0 15 2 2 11 -12 8 -10 9 7 4 12 -3
25 -1 29 6 5 8 3 10 -7 4 -8 -5 -11 -4 -6 0 4 5 16 9 27 10 19 2 25 -7 21 -29
-1 -5 4 -5 11 1 10 9 14 4 15 -22 2 -19 -2 -37 -7 -40 -7 -4 -6 -13 1 -27 6
-11 9 -28 6 -39 -6 -22 17 -44 34 -33 8 5 9 3 4 -6 -6 -10 -3 -12 13 -8 15 4
22 2 22 -8 0 -8 5 -14 10 -14 6 0 10 6 10 14 0 9 7 12 21 9 12 -4 25 0 30 8 6
10 9 10 9 2 0 -7 7 -13 16 -13 10 0 14 -6 11 -15 -4 -8 -1 -17 4 -21 15 -9
187 -11 201 -3 6 4 8 17 5 29 -3 12 -3 28 0 36 10 26 23 14 29 -26 6 -36 24
-67 24 -41 0 6 9 11 20 11 13 0 18 5 14 14 -3 8 3 23 15 32 11 10 17 22 14 28
-4 6 1 5 10 -3 16 -13 16 -15 1 -32 -8 -9 -14 -25 -12 -35 4 -24 28 -30 28 -6
0 10 3 22 7 26 11 11 10 45 -1 43 -6 -1 -12 8 -14 21 -3 17 1 22 17 22 16 0
21 7 22 28 l2 27 4 -27 c2 -16 9 -28 14 -28 6 0 7 -4 4 -10 -3 -5 -1 -10 4
-10 14 0 14 6 1 30 -7 13 -6 19 5 24 8 3 17 1 20 -4 9 -14 -6 -81 -16 -74 -5
3 -9 -1 -9 -9 0 -7 -11 -23 -25 -35 -15 -13 -25 -33 -26 -49 -1 -53 -7 -108
-14 -135 -5 -18 -3 -28 4 -28 19 0 41 46 45 94 2 26 7 50 10 53 3 4 6 19 6 35
0 34 16 37 24 3 3 -13 6 -155 6 -315 1 -285 1 -291 20 -285 19 6 20 2 20 -59
l0 -66 -102 1 c-72 1 -92 4 -68 9 27 6 16 8 -45 9 -46 0 -74 -3 -67 -8 16 -10
-256 -19 -622 -21 l-269 -1 7 188 c3 103 7 330 7 505 1 174 5 322 10 329 4 7
7 -110 6 -261 -2 -211 1 -274 11 -277 9 -4 12 15 13 69 1 67 15 192 18 159 0
-8 3 -12 7 -9 3 3 -4 21 -15 39 -11 18 -18 36 -16 39 3 4 7 79 11 166 6 150 9
202 12 232 3 21 40 -9 52 -42z m154 -157 c-3 -5 -11 -9 -17 -8 -8 0 -8 2 1 6
10 4 10 8 0 21 -12 15 -11 16 4 3 10 -7 15 -17 12 -22z m26 -19 c0 -5 -6 -10
-12 -11 -10 0 -10 -2 0 -6 21 -8 13 -23 -14 -23 -22 0 -25 2 -14 15 10 12 10
15 -1 16 -8 0 -5 4 6 9 27 12 35 12 35 0z m-160 -20 c0 -5 -2 -10 -4 -10 -3 0
-8 5 -11 10 -3 6 -1 10 4 10 6 0 11 -4 11 -10z m957 -42 c-3 -7 -5 -2 -5 12 0
14 2 19 5 13 2 -7 2 -19 0 -25z m-827 -8 c0 -5 -2 -10 -4 -10 -3 0 -8 5 -11
10 -3 6 -1 10 4 10 6 0 11 -4 11 -10z m637 -42 c-3 -7 -5 -2 -5 12 0 14 2 19
5 13 2 -7 2 -19 0 -25z m-491 -29 c19 -5 7 -7 -38 -8 -38 0 -68 3 -68 8 0 17
21 23 36 10 13 -10 16 -8 21 11 6 22 7 23 13 4 4 -10 20 -22 36 -25z m719 -47
c-3 -3 -11 0 -18 7 -9 10 -8 11 6 5 10 -3 15 -9 12 -12z m-740 -2 c3 -6 -1 -7
-9 -4 -18 7 -21 14 -7 14 6 0 13 -4 16 -10z m780 -321 c-10 -15 -25 -10 -19 6
4 8 10 12 15 9 5 -3 7 -10 4 -15z m4047 -51 c-10 -10 -6 -17 15 -36 27 -23 27
-24 9 -38 -11 -8 -28 -12 -38 -8 -10 3 -18 1 -18 -5 0 -6 3 -11 8 -10 21 3 50
-17 75 -53 l28 -40 -78 6 c-43 3 -84 6 -90 6 -7 0 -13 11 -13 25 0 31 -14 32
-34 4 l-15 -22 -7 27 c-3 14 -11 26 -16 26 -6 0 -7 11 -4 25 5 20 3 25 -13 25
-11 0 -23 5 -26 10 -3 6 -11 10 -16 10 -6 0 -7 -4 -4 -10 3 -5 0 -10 -8 -10
-8 0 -17 8 -19 18 -5 20 17 47 27 32 3 -5 16 -5 33 1 15 5 53 10 84 12 32 2
61 6 65 10 3 4 20 7 37 7 23 0 27 -3 18 -12z m-794 -21 c6 -5 12 -16 12 -25 0
-9 7 -6 21 12 11 14 25 26 30 26 9 0 49 -82 49 -101 0 -5 -7 -9 -15 -9 -8 0
-15 5 -15 10 0 14 -43 13 -57 -1 -14 -14 -36 -1 -29 17 4 11 -1 13 -22 8 -15
-4 -30 -12 -33 -17 -4 -5 -14 -7 -22 -4 -12 4 -14 16 -10 49 3 24 11 46 17 50
13 8 55 0 74 -15z m172 -12 c14 17 40 20 40 5 0 -7 7 -7 20 0 29 15 74 9 78
-12 2 -12 -4 -16 -30 -15 -27 2 -33 -2 -33 -18 0 -15 8 -21 33 -23 47 -5 35
-27 -14 -27 -34 0 -41 4 -56 33 -16 34 -19 33 -43 -12 -13 -25 -29 -22 -33 5
-2 13 -11 33 -19 45 -22 33 -6 51 22 24 19 -18 23 -19 35 -5z m248 -1 c26 -18
29 -56 6 -78 -8 -9 -18 -16 -22 -17 -4 0 -15 -2 -26 -4 -19 -4 -66 35 -66 55
0 18 48 60 67 60 10 0 29 -7 41 -16z m-3678 -79 c0 -35 -3 -43 -15 -39 -10 4
-15 20 -15 45 0 28 4 39 15 39 11 0 15 -12 15 -45z m3507 -71 c-3 -3 -12 -4
-19 -1 -8 3 -5 6 6 6 11 1 17 -2 13 -5z m112 -60 c2 -2 -170 -4 -382 -4 -271
0 -387 3 -387 11 0 8 110 9 383 4 210 -4 384 -9 386 -11z m-4859 -165 c0 -39
3 -50 13 -46 8 3 20 1 28 -4 9 -6 -3 -8 -35 -6 -38 2 -53 8 -64 25 -14 21 -13
22 12 22 20 0 27 5 25 18 -3 29 1 42 11 42 6 0 10 -23 10 -51z m1537 35 c-3
-3 -12 -4 -19 -1 -8 3 -5 6 6 6 11 1 17 -2 13 -5z m-510 -10 c-3 -3 -12 -4
-19 -1 -8 3 -5 6 6 6 11 1 17 -2 13 -5z m2666 -21 c-7 -2 -21 -2 -30 0 -10 3
-4 5 12 5 17 0 24 -2 18 -5z m-753 -39 c0 -7 -23 -12 -67 -12 -69 0 -87 4 -79
17 8 13 146 9 146 -5z m-220 2 c0 -3 -4 -8 -10 -11 -5 -3 -10 -1 -10 4 0 6 5
11 10 11 6 0 10 -2 10 -4z m-2800 -36 c11 -7 4 -10 -27 -10 -24 0 -43 5 -43
10 0 13 50 13 70 0z m5436 -197 c-10 -10 -19 5 -10 18 6 11 8 11 12 0 2 -7 1
-15 -2 -18z m-5166 -20 c0 -18 19 -26 33 -14 14 11 57 4 57 -9 0 -16 -141 -22
-156 -7 -2 2 3 18 12 35 13 28 18 30 35 19 10 -6 19 -17 19 -24z m-450 12 c0
-8 -4 -15 -10 -15 -5 0 -7 7 -4 15 4 8 8 15 10 15 2 0 4 -7 4 -15z m5500 -1
c0 -2 -7 -4 -15 -4 -8 0 -15 4 -15 10 0 5 7 7 15 4 8 -4 15 -8 15 -10z m-5360
-43 c0 -5 -9 -7 -20 -4 -11 3 -20 7 -20 9 0 2 9 4 20 4 11 0 20 -4 20 -9z
m210 -50 c35 -7 18 -9 -77 -10 -76 -1 -123 3 -123 9 0 12 134 12 200 1z m337
-8 c-20 -2 -52 -2 -70 0 -17 2 0 4 38 4 39 0 53 -2 32 -4z m116 -8 c19 19 23
6 5 -14 -8 -8 -8 -11 -2 -8 7 4 18 0 25 -9 18 -22 20 -61 3 -68 -19 -7 -45 3
-43 18 3 24 -1 37 -11 31 -5 -3 -10 0 -10 7 0 7 -3 24 -6 38 -6 23 -6 24 8 6
13 -17 15 -17 31 -1z m-657 -28 c-2 -13 -7 -53 -11 -90 -7 -62 -9 -67 -32 -67
-13 0 -22 3 -20 8 3 4 8 41 12 82 4 41 12 78 18 82 23 15 37 8 33 -15z m5034
-22 c0 -12 -16 -15 -80 -15 -64 0 -80 3 -80 15 0 12 16 15 80 15 64 0 80 -3
80 -15z m140 0 c0 -12 -14 -15 -65 -15 -51 0 -65 3 -65 15 0 12 14 15 65 15
51 0 65 -3 65 -15z m-5048 -84 c25 -45 15 -66 -33 -68 -21 -1 -39 2 -39 8 0 5
-5 8 -12 7 -27 -6 -19 33 11 50 17 9 31 20 31 25 0 18 27 4 42 -22z m703 19
c3 -5 2 -10 -4 -10 -5 0 -13 5 -16 10 -3 6 -2 10 4 10 5 0 13 -4 16 -10z
m1683 -37 c-32 -2 -84 -2 -115 0 -32 2 -6 3 57 3 63 0 89 -1 58 -3z m240 0
c-32 -2 -86 -2 -120 0 -35 2 -9 3 57 3 66 0 94 -1 63 -3z m150 0 c-10 -2 -26
-2 -35 0 -10 3 -2 5 17 5 19 0 27 -2 18 -5z m120 0 c-16 -2 -40 -2 -55 0 -16
2 -3 4 27 4 30 0 43 -2 28 -4z m105 0 c-7 -2 -21 -2 -30 0 -10 3 -4 5 12 5 17
0 24 -2 18 -5z m-2715 -29 c61 -9 32 -24 -47 -24 -78 0 -107 10 -76 27 15 9
55 8 123 -3z m397 -85 c-4 -5 -1 -9 4 -9 6 0 11 5 11 11 0 11 169 10 210 -2
24 -7 24 -7 -5 -9 -81 -4 -282 -11 -300 -10 -11 1 -60 3 -110 4 -119 4 -138 7
-95 15 56 11 291 11 285 0z m-861 -91 c-11 -40 -19 -48 -33 -39 -21 13 -6 61
20 61 16 0 19 -4 13 -22z m600 -187 c5 -8 -84 -3 -93 5 -2 2 16 4 42 4 25 0
48 -4 51 -9z m-267 -15 c-12 -4 -67 -10 -121 -12 -79 -3 -96 -1 -82 9 10 8 55
12 121 12 70 0 97 -3 82 -9z m-221 -64 c-3 -3 -1 -11 5 -18 6 -8 8 -21 5 -30
-4 -9 -1 -24 6 -32 10 -12 10 -14 1 -8 -7 4 -13 2 -13 -3 0 -6 -7 -11 -15 -11
-19 0 -21 56 -2 64 10 5 10 7 0 12 -19 9 -17 45 2 37 9 -3 13 -8 11 -11z m-50
-128 c-3 -8 -10 -12 -16 -9 -14 9 -12 42 3 48 14 5 21 -17 13 -39z m-206 6 c0
-5 -4 -10 -10 -10 -5 0 -10 5 -10 10 0 6 5 10 10 10 6 0 10 -4 10 -10z m1590
-80 c-36 -12 -80 -12 -80 0 0 6 24 10 53 9 41 -1 47 -3 27 -9z m-522 -7 c-21
-2 -55 -2 -75 0 -21 2 -4 4 37 4 41 0 58 -2 38 -4z m-196 -14 c-15 -5 -36 -6
-55 0 -29 8 -27 9 23 9 44 1 50 -1 32 -9z m-578 -35 c-15 -8 -29 -12 -32 -9
-9 9 31 33 45 28 9 -4 5 -10 -13 -19z m380 0 c9 -22 8 -24 -9 -24 -8 0 -15 9
-15 20 0 24 15 27 24 4z m290 -215 c211 1 247 -11 48 -16 -161 -4 -379 8 -312
18 25 3 52 4 60 2 8 -3 100 -4 204 -4z m-414 -14 c-16 -8 -66 -14 -130 -16
-123 -4 -255 -1 -249 5 2 2 83 7 179 11 96 4 177 9 179 11 2 2 14 4 25 4 19
-1 19 -2 -4 -15z m440 -605 c37 -24 -18 -30 -250 -26 -267 4 -273 5 -258 23
13 16 484 19 508 3z m1085 -168 c27 -17 32 -29 48 -105 9 -48 23 -99 29 -114
12 -28 12 -28 17 17 4 31 11 45 21 45 11 0 14 -9 12 -35 -5 -75 -12 -96 -30
-96 -50 -2 -226 -39 -285 -61 -38 -13 -70 -23 -72 -21 -2 2 -6 53 -9 113 -3
61 -8 128 -12 151 -5 36 -3 43 24 69 44 41 79 53 157 54 51 1 78 -4 100 -17z
m-1815 -128 c0 -2 -14 -4 -31 -4 -16 0 -28 4 -25 9 5 8 56 3 56 -5z m1940 7
c0 -6 -4 -13 -10 -16 -5 -3 -10 1 -10 9 0 9 5 16 10 16 6 0 10 -4 10 -9z
m-1010 -68 c0 -10 -6 -13 -16 -9 -9 3 -56 6 -106 6 -71 0 -88 3 -80 13 7 8 38
11 106 9 78 -3 96 -6 96 -19z m-797 -3 c-2 -3 -30 -5 -61 -6 -40 -1 -50 1 -32
6 27 9 102 8 93 0z m-176 -6 c-3 -3 -12 -4 -19 -1 -8 3 -5 6 6 6 11 1 17 -2
13 -5z m1971 -153 c4 -22 3 -23 -19 -7 -13 9 -31 16 -41 16 -9 0 -20 5 -23 11
-5 7 8 9 37 7 37 -3 43 -7 46 -27z"/>
<path d="M4050 5940 c0 -11 7 -20 15 -20 8 0 15 9 15 20 0 11 -7 20 -15 20 -8
0 -15 -9 -15 -20z"/>
<path d="M3660 5935 c0 -8 9 -15 20 -15 11 0 20 7 20 15 0 8 -9 15 -20 15 -11
0 -20 -7 -20 -15z"/>
<path d="M3941 5894 c0 -11 3 -14 6 -6 3 7 2 16 -1 19 -3 4 -6 -2 -5 -13z"/>
<path d="M3869 5785 c-3 -2 -3 -23 -1 -46 3 -30 7 -38 14 -28 7 11 11 11 15 1
6 -15 23 -6 23 14 0 8 -7 14 -15 14 -8 0 -15 9 -15 19 0 19 -13 35 -21 26z"/>
<path d="M3695 5770 c3 -5 8 -10 11 -10 2 0 4 5 4 10 0 6 -5 10 -11 10 -5 0
-7 -4 -4 -10z"/>
<path d="M4098 5749 c-6 -19 4 -79 13 -79 12 0 12 77 0 84 -5 4 -11 1 -13 -5z"/>
<path d="M3980 5739 c0 -5 5 -7 10 -4 6 3 10 8 10 11 0 2 -4 4 -10 4 -5 0 -10
-5 -10 -11z"/>
<path d="M3888 5676 c-22 -16 -23 -27 -3 -20 11 5 15 -1 15 -19 0 -23 2 -24
25 -14 24 12 24 12 5 21 -14 6 -18 15 -14 28 6 21 -4 23 -28 4z"/>
<path d="M3767 5653 c-6 -31 -1 -41 12 -27 14 14 17 47 5 51 -6 2 -14 -9 -17
-24z"/>
<path d="M3980 5669 c0 -5 5 -7 10 -4 6 3 10 8 10 11 0 2 -4 4 -10 4 -5 0 -10
-5 -10 -11z"/>
<path d="M4010 5640 c0 -5 5 -10 10 -10 6 0 10 5 10 10 0 6 -4 10 -10 10 -5 0
-10 -4 -10 -10z"/>
<path d="M3820 5629 c0 -5 5 -7 10 -4 6 3 10 8 10 11 0 2 -4 4 -10 4 -5 0 -10
-5 -10 -11z"/>
<path d="M3850 5607 c0 -19 16 -31 24 -18 3 5 -1 14 -9 21 -12 10 -15 10 -15
-3z"/>
<path d="M3967 5613 c-11 -10 -8 -43 3 -43 6 0 10 11 10 25 0 26 -2 29 -13 18z"/>
<path d="M4040 5554 c0 -8 5 -12 10 -9 6 4 8 11 5 16 -9 14 -15 11 -15 -7z"/>
<path d="M3664 5539 c-8 -14 11 -33 25 -25 16 10 13 36 -3 36 -8 0 -18 -5 -22
-11z"/>
<path d="M3865 5520 c-15 -17 -16 -20 -3 -20 9 0 18 9 21 20 3 11 4 20 3 20
-2 0 -11 -9 -21 -20z"/>
<path d="M3150 5940 c-12 -8 -10 -10 8 -10 13 0 20 4 17 10 -7 12 -6 12 -25 0z"/>
<path d="M2837 5953 c-11 -10 -8 -71 3 -78 6 -4 10 12 10 39 0 47 -2 51 -13
39z"/>
<path d="M2570 5915 c0 -26 14 -33 25 -14 4 6 14 8 22 5 9 -4 13 -1 11 6 -3 7
-10 13 -15 13 -6 0 -15 3 -19 8 -14 14 -24 7 -24 -18z"/>
<path d="M2660 5920 c0 -11 2 -20 4 -20 2 0 6 9 9 20 3 11 1 20 -4 20 -5 0 -9
-9 -9 -20z"/>
<path d="M2650 5783 c0 -5 5 -15 10 -23 8 -12 10 -11 10 8 0 12 -4 22 -10 22
-5 0 -10 -3 -10 -7z"/>
<path d="M3034 5486 c-8 -22 -1 -59 14 -64 8 -2 12 9 12 37 0 40 -15 55 -26
27z"/>
<path d="M3080 5460 c0 -5 5 -10 10 -10 6 0 10 5 10 10 0 6 -4 10 -10 10 -5 0
-10 -4 -10 -10z"/>
<path d="M3157 5464 c-10 -11 -8 -44 2 -44 6 0 13 4 16 10 8 12 -9 43 -18 34z"/>
<path d="M2920 5450 c0 -5 5 -10 11 -10 5 0 7 5 4 10 -3 6 -8 10 -11 10 -2 0
-4 -4 -4 -10z"/>
<path d="M2925 5410 c6 -10 40 -8 51 3 4 4 -7 7 -25 7 -19 0 -30 -4 -26 -10z"/>
<path d="M3385 5490 c-9 -15 3 -30 24 -30 21 0 44 23 34 33 -10 11 -51 8 -58
-3z"/>
<path d="M3456 5451 c-5 -13 -4 -27 3 -34 17 -17 24 -1 14 30 l-10 28 -7 -24z"/>
<path d="M3402 5431 c4 -13 18 -16 19 -4 0 4 -5 9 -11 12 -7 2 -11 -2 -8 -8z"/>
<path d="M2023 5403 c9 -2 25 -2 35 0 9 3 1 5 -18 5 -19 0 -27 -2 -17 -5z"/>
<path d="M2662 5439 c1 -13 8 -23 13 -21 15 3 12 35 -3 40 -9 3 -13 -3 -10
-19z"/>
<path d="M2150 5431 c0 -12 6 -21 16 -21 9 0 14 7 12 17 -5 25 -28 28 -28 4z"/>
<path d="M3744 4195 c-3 -8 4 -29 17 -46 21 -29 21 -33 6 -44 -19 -13 -23 -50
-7 -60 6 -4 10 5 10 19 0 19 5 26 20 26 20 0 40 27 40 55 0 20 -44 65 -65 65
-9 0 -18 -7 -21 -15z"/>
<path d="M3810 4059 c0 -5 5 -7 10 -4 6 3 10 8 10 11 0 2 -4 4 -10 4 -5 0 -10
-5 -10 -11z"/>
<path d="M3616 3695 c-60 -47 -65 -73 -6 -39 23 14 70 74 57 74 -2 0 -25 -16
-51 -35z"/>
<path d="M4007 3163 c-4 -3 -7 -11 -7 -17 0 -6 5 -5 12 2 6 6 9 14 7 17 -3 3
-9 2 -12 -2z"/>
<path d="M4245 3081 c-16 -9 -49 -36 -72 -61 -37 -39 -44 -44 -61 -33 -21 12
-32 8 -32 -12 0 -8 18 -11 55 -9 48 3 59 7 81 33 14 17 34 31 44 31 10 0 22 5
25 10 4 6 16 2 32 -10 14 -11 28 -18 31 -16 8 9 -22 65 -38 70 -8 3 -19 8 -25
10 -5 2 -23 -4 -40 -13z"/>
<path d="M4365 2970 c3 -5 11 -10 16 -10 6 0 7 5 4 10 -3 6 -11 10 -16 10 -6
0 -7 -4 -4 -10z"/>
<path d="M4259 2968 c-7 -33 -7 -68 1 -68 6 0 10 -6 10 -14 0 -8 7 -21 15 -30
8 -8 19 -25 24 -38 l9 -23 10 26 c10 26 23 88 26 124 1 17 -6 20 -46 23 -27 2
-48 2 -49 0z"/>
<path d="M930 3733 c0 -6 -12 -9 -26 -7 -28 3 -25 -8 4 -12 9 -1 27 -6 40 -9
16 -6 22 -3 22 9 0 9 -5 16 -11 16 -5 0 -7 -6 -4 -12 4 -7 -1 -4 -9 6 -9 11
-16 15 -16 9z"/>
<path d="M834 3714 c-18 -15 -18 -15 3 -5 16 8 23 8 26 -2 3 -7 6 -5 6 6 1 21
-9 22 -35 1z"/>
<path d="M986 3711 c-4 -7 -5 -15 -2 -18 9 -9 19 4 14 18 -4 11 -6 11 -12 0z"/>
<path d="M1573 3595 c0 -8 4 -15 9 -15 4 0 8 7 8 15 0 8 -4 15 -8 15 -5 0 -9
-7 -9 -15z"/>
<path d="M1011 3507 c-17 -32 -2 -121 22 -125 14 -3 17 4 17 37 0 34 3 41 20
41 11 0 20 4 20 10 0 5 -9 15 -20 22 -11 7 -20 18 -20 25 0 21 -26 15 -39 -10z"/>
<path d="M1122 3500 c-26 -34 -27 -40 -8 -40 10 0 16 -13 18 -37 2 -25 8 -39
19 -41 13 -2 18 8 23 47 7 57 0 101 -18 101 -7 0 -22 -13 -34 -30z"/>
<path d="M1248 3443 c6 -2 18 -2 25 0 6 3 1 5 -13 5 -14 0 -19 -2 -12 -5z"/>
<path d="M1343 3443 c15 -2 37 -2 50 0 12 2 0 4 -28 4 -27 0 -38 -2 -22 -4z"/>
<path d="M750 3337 c0 -7 6 -22 14 -32 11 -15 17 -17 28 -8 8 7 24 10 36 6 19
-4 22 -1 22 21 0 25 -3 26 -50 26 -35 0 -50 -4 -50 -13z"/>
<path d="M898 3344 c-16 -15 6 -42 39 -47 44 -8 53 -3 53 29 0 22 -4 24 -43
24 -24 0 -46 -3 -49 -6z"/>
<path d="M1222 3328 c2 -17 10 -23 28 -24 45 -1 49 -4 52 -31 4 -38 34 -42 41
-6 3 15 9 40 13 56 l6 27 -72 0 c-68 0 -71 -1 -68 -22z"/>
<path d="M1192 3270 c2 -8 13 -15 25 -15 12 0 25 -4 29 -8 15 -15 34 -6 34 16
0 21 -4 23 -45 23 -35 -1 -45 -5 -43 -16z"/>
<path d="M1359 3281 c11 -7 11 -9 0 -13 -7 -2 -9 -9 -5 -17 6 -9 11 -9 22 0
21 18 17 39 -8 39 -17 0 -19 -3 -9 -9z"/>
<path d="M818 3273 c-34 -3 -48 -8 -48 -19 0 -16 35 -19 45 -4 4 6 13 5 25 -2
14 -9 25 -9 42 -1 13 6 30 14 38 17 8 3 3 4 -12 2 -16 -2 -28 1 -28 5 0 5 -3
8 -7 7 -5 -1 -29 -3 -55 -5z"/>
<path d="M800 3220 c0 -5 7 -10 15 -10 8 0 15 5 15 10 0 6 -7 10 -15 10 -8 0
-15 -4 -15 -10z"/>
<path d="M531 3114 c0 -11 3 -14 6 -6 3 7 2 16 -1 19 -3 4 -6 -2 -5 -13z"/>
<path d="M522 2959 c2 -6 8 -10 13 -10 5 0 11 4 13 10 2 6 -4 11 -13 11 -9 0
-15 -5 -13 -11z"/>
<path d="M5572 3094 c1 -9 9 -19 16 -22 9 -3 13 2 10 14 -1 9 -9 19 -16 22 -9
3 -13 -2 -10 -14z"/>
<path d="M4875 3150 c4 -6 11 -8 16 -5 14 9 11 15 -7 15 -8 0 -12 -5 -9 -10z"/>
<path d="M5284 3135 c-8 -21 2 -45 19 -45 8 0 20 7 27 15 10 12 10 18 0 30 -7
8 -19 15 -27 15 -7 0 -16 -7 -19 -15z"/>
<path d="M0 5887 c0 -221 3 -327 10 -327 8 0 9 100 4 323 -4 177 -8 324 -10
326 -2 2 -4 -143 -4 -322z"/>
<path d="M4911 2068 c-5 -13 -12 -31 -15 -40 -4 -14 -83 -67 -121 -82 -6 -2
-6 -8 2 -16 16 -17 62 -5 116 31 l45 30 46 -31 c54 -37 116 -51 116 -27 0 9
-15 20 -34 27 -46 15 -106 75 -106 105 0 33 -37 34 -49 3z"/>
<path d="M5497 2063 c-2 -5 -7 -25 -11 -46 -8 -44 -62 -109 -106 -127 -33 -14
-38 -27 -15 -36 22 -9 74 15 118 55 l38 34 27 -25 c25 -24 64 -48 76 -48 10 0
-8 35 -37 73 -19 24 -31 54 -35 83 -4 38 -8 44 -28 44 -12 0 -25 -3 -27 -7z"/>
<path d="M5817 2064 c-13 -13 5 -24 41 -24 34 0 35 1 16 15 -20 15 -46 19 -57
9z"/>
<path d="M4904 1910 l-6 -30 -79 0 c-72 0 -79 -2 -79 -20 0 -19 7 -20 195 -20
188 0 195 1 195 20 0 18 -7 20 -79 20 l-78 0 -6 30 c-5 24 -12 30 -32 30 -20
0 -27 -6 -31 -30z"/>
<path d="M5969 1900 c-1 -8 -1 -20 0 -27 1 -6 -6 -14 -16 -16 -10 -3 -1 -5 20
-6 20 0 37 4 37 9 0 6 -5 10 -10 10 -6 0 -15 10 -20 23 -5 14 -9 17 -11 7z"/>
<path d="M5760 1865 c0 -8 9 -15 20 -15 11 0 20 7 20 15 0 8 -9 15 -20 15 -11
0 -20 -7 -20 -15z"/>
<path d="M5497 1863 c-4 -3 -7 -26 -7 -49 l0 -43 -82 -3 c-49 -2 -83 -7 -85
-14 -6 -19 34 -24 195 -24 145 0 152 1 152 20 0 18 -7 20 -60 20 l-60 0 0 50
c0 46 -2 50 -23 50 -13 0 -27 -3 -30 -7z"/>
<path d="M108 1843 c6 -2 18 -2 25 0 6 3 1 5 -13 5 -14 0 -19 -2 -12 -5z"/>
<path d="M0 1810 c0 -34 6 -36 36 -15 12 8 24 12 27 9 3 -3 10 4 17 15 10 20
8 21 -35 21 -43 0 -45 -1 -45 -30z"/>
<path d="M4802 1798 c-7 -7 -12 -33 -12 -58 l0 -47 146 -6 c81 -4 151 -4 155
-1 5 3 9 12 9 20 0 11 -21 14 -109 14 -60 0 -116 3 -125 6 -11 4 -16 19 -16
45 0 31 -4 39 -18 39 -10 0 -23 -5 -30 -12z"/>
<path d="M5810 1786 c0 -11 9 -16 26 -16 31 0 28 23 -4 28 -15 2 -22 -2 -22
-12z"/>
<path d="M6015 1789 c-4 -6 2 -13 14 -16 12 -3 21 -11 21 -18 0 -22 34 -75 48
-75 23 0 12 49 -19 85 -32 36 -53 44 -64 24z"/>
<path d="M4942 1555 c-17 -37 -14 -45 4 -12 9 16 14 31 11 33 -2 2 -9 -7 -15
-21z"/>
<path d="M4981 1564 c0 -11 3 -14 6 -6 3 7 2 16 -1 19 -3 4 -6 -2 -5 -13z"/>
<path d="M5036 1563 c-6 -14 -5 -15 5 -6 7 7 10 15 7 18 -3 3 -9 -2 -12 -12z"/>
<path d="M5100 1571 c0 -5 5 -22 11 -38 8 -22 12 -24 19 -13 15 23 12 38 -10
50 -12 7 -20 7 -20 1z"/>
<path d="M5207 1560 c-3 -11 -1 -23 4 -26 5 -3 9 6 9 20 0 31 -6 34 -13 6z"/>
<path d="M5261 1564 c0 -11 3 -14 6 -6 3 7 2 16 -1 19 -3 4 -6 -2 -5 -13z"/>
<path d="M4882 1550 c0 -14 2 -19 5 -12 2 6 2 18 0 25 -3 6 -5 1 -5 -13z"/>
<path d="M5061 1554 c0 -11 3 -14 6 -6 3 7 2 16 -1 19 -3 4 -6 -2 -5 -13z"/>
<path d="M5241 1554 c0 -11 3 -14 6 -6 3 7 2 16 -1 19 -3 4 -6 -2 -5 -13z"/>
<path d="M5561 1539 c-7 -17 -11 -32 -8 -35 2 -3 10 9 17 26 17 40 8 48 -9 9z"/>
<path d="M5501 1534 c0 -11 3 -14 6 -6 3 7 2 16 -1 19 -3 4 -6 -2 -5 -13z"/>
<path d="M295 1470 c-3 -5 1 -10 9 -10 9 0 16 5 16 10 0 6 -4 10 -9 10 -6 0
-13 -4 -16 -10z"/>
<path d="M575 1460 c-3 -5 -1 -10 4 -10 6 0 11 5 11 10 0 6 -2 10 -4 10 -3 0
-8 -4 -11 -10z"/>
<path d="M645 1460 c-3 -5 -1 -10 4 -10 6 0 11 5 11 10 0 6 -2 10 -4 10 -3 0
-8 -4 -11 -10z"/>
<path d="M4862 1415 c-6 -14 -8 -25 -3 -25 8 0 23 41 17 47 -1 2 -8 -8 -14
-22z"/>
<path d="M4914 1429 c-3 -6 -1 -16 5 -22 8 -8 11 -5 11 11 0 24 -5 28 -16 11z"/>
<path d="M5015 1430 c3 -5 8 -10 11 -10 2 0 4 5 4 10 0 6 -5 10 -11 10 -5 0
-7 -4 -4 -10z"/>
<path d="M4810 1421 c0 -5 5 -13 10 -16 6 -3 10 -2 10 4 0 5 -4 13 -10 16 -5
3 -10 2 -10 -4z"/>
<path d="M5051 1414 c0 -11 3 -14 6 -6 3 7 2 16 -1 19 -3 4 -6 -2 -5 -13z"/>
<path d="M5176 1413 c-6 -14 -5 -15 5 -6 7 7 10 15 7 18 -3 3 -9 -2 -12 -12z"/>
<path d="M5240 1421 c0 -6 5 -13 10 -16 6 -3 10 1 10 9 0 9 -4 16 -10 16 -5 0
-10 -4 -10 -9z"/>
<path d="M5310 1422 c0 -12 19 -26 26 -19 2 2 -2 10 -11 17 -9 8 -15 8 -15 2z"/>
<path d="M5471 1398 c-14 -38 -14 -49 0 -25 6 9 14 15 20 12 5 -4 9 3 9 14 0
33 -17 33 -29 -1z"/>
<path d="M5775 1420 c-3 -5 -1 -10 4 -10 6 0 11 5 11 10 0 6 -2 10 -4 10 -3 0
-8 -4 -11 -10z"/>
<path d="M45 1410 c3 -5 10 -10 16 -10 5 0 9 5 9 10 0 6 -7 10 -16 10 -8 0
-12 -4 -9 -10z"/>
<path d="M5581 1404 c0 -11 3 -14 6 -6 3 7 2 16 -1 19 -3 4 -6 -2 -5 -13z"/>
<path d="M5627 1406 c-3 -8 0 -17 7 -19 10 -4 12 1 9 14 -6 23 -9 24 -16 5z"/>
<path d="M5421 1398 c-1 -10 6 -18 14 -18 8 0 15 5 15 11 0 5 -4 8 -9 5 -5 -4
-12 0 -14 6 -3 8 -6 6 -6 -4z"/>
<path d="M5121 1274 c0 -11 3 -14 6 -6 3 7 2 16 -1 19 -3 4 -6 -2 -5 -13z"/>
<path d="M5341 1274 c0 -11 3 -14 6 -6 3 7 2 16 -1 19 -3 4 -6 -2 -5 -13z"/>
<path d="M5181 1264 c0 -11 3 -14 6 -6 3 7 2 16 -1 19 -3 4 -6 -2 -5 -13z"/>
<path d="M5211 1273 c-1 -6 -4 -20 -7 -30 -5 -17 -5 -17 6 0 6 10 9 23 6 30
-3 9 -5 9 -5 0z"/>
<path d="M5245 1268 c-4 -11 -1 -24 9 -33 14 -14 16 -13 22 10 3 14 4 29 0 32
-3 4 -6 -2 -7 -13 0 -18 -1 -18 -9 1 -7 18 -8 18 -15 3z"/>
<path d="M5447 1273 c-9 -17 -17 -68 -9 -54 8 11 10 11 14 0 3 -8 4 3 4 23 -1
40 -2 43 -9 31z"/>
<path d="M5151 1254 c0 -11 3 -14 6 -6 3 7 2 16 -1 19 -3 4 -6 -2 -5 -13z"/>
<path d="M5406 1261 c-4 -7 -5 -15 -2 -18 9 -9 19 4 14 18 -4 11 -6 11 -12 0z"/>
<path d="M4921 1244 c0 -11 3 -14 6 -6 3 7 2 16 -1 19 -3 4 -6 -2 -5 -13z"/>
<path d="M5220 1070 c0 -5 -3 -9 -7 -7 -5 1 -10 -2 -12 -8 -3 -5 3 -11 12 -13
12 -2 17 3 17 17 0 12 -2 21 -5 21 -3 0 -5 -4 -5 -10z"/>
<path d="M5256 1065 c-9 -24 -8 -25 20 -25 19 0 25 5 22 17 -4 23 -34 28 -42
8z"/>
<path d="M5150 1055 c0 -8 5 -15 10 -15 6 0 10 7 10 15 0 8 -4 15 -10 15 -5 0
-10 -7 -10 -15z"/>
<path d="M5320 1056 c0 -9 5 -16 10 -16 6 0 10 4 10 9 0 6 -4 13 -10 16 -5 3
-10 -1 -10 -9z"/>
<path d="M5419 1053 c-12 -14 -12 -16 1 -11 8 3 24 1 35 -5 20 -10 20 -10 1
12 -23 25 -20 25 -37 4z"/>
<path d="M5590 1058 c0 -5 -11 -6 -25 -2 -20 5 -25 2 -31 -21 -9 -36 17 -65
40 -45 10 8 16 9 16 2 0 -6 9 -16 20 -22 19 -10 20 -8 20 43 0 46 -3 53 -20
53 -11 0 -20 -4 -20 -8z m27 -60 c-2 -13 -4 -5 -4 17 -1 22 1 32 4 23 2 -10 2
-28 0 -40z m-47 22 c0 -11 -4 -20 -10 -20 -5 0 -10 9 -10 20 0 11 5 20 10 20
6 0 10 -9 10 -20z"/>
<path d="M5720 1038 c0 -33 -3 -38 -22 -38 -30 0 -52 -15 -44 -29 4 -6 23 -11
41 -11 30 0 35 3 33 23 -1 12 1 31 5 42 4 11 2 27 -3 35 -7 11 -10 5 -10 -22z
m-5 -58 c4 -6 -5 -10 -19 -10 -14 0 -26 5 -26 10 0 6 9 10 19 10 11 0 23 -4
26 -10z"/>
<path d="M5777 1044 c-18 -24 -10 -33 11 -12 8 8 15 8 27 -2 24 -20 26 -7 2
16 l-22 21 -18 -23z"/>
<path d="M5873 1055 c-8 -9 -9 -16 -3 -20 23 -14 -4 -25 -63 -26 -34 -1 -52
-4 -39 -6 14 -3 22 -12 22 -24 0 -10 5 -19 10 -19 6 0 10 8 10 19 0 15 10 20
57 26 31 4 52 10 47 13 -5 4 -9 13 -10 20 -3 37 -10 41 -31 17z"/>
<path d="M5642 1036 c2 -15 12 -22 31 -24 23 -3 27 0 27 21 0 20 -5 24 -30 24
-26 0 -30 -4 -28 -21z m38 -6 c0 -5 -4 -10 -10 -10 -5 0 -10 5 -10 10 0 6 5
10 10 10 6 0 10 -4 10 -10z"/>
<path d="M5942 1030 c0 -19 2 -27 5 -17 2 9 2 25 0 35 -3 9 -5 1 -5 -18z"/>
<path d="M5425 1020 c-4 -6 9 -10 31 -10 42 0 42 4 2 14 -15 3 -30 2 -33 -4z"/>
<path d="M5425 991 c-3 -6 2 -11 12 -11 11 0 24 -5 31 -12 9 -9 12 -8 12 5 0
9 -4 17 -9 17 -5 0 -16 3 -24 6 -8 3 -18 1 -22 -5z"/>
<path d="M5905 983 c16 -3 33 -10 37 -16 5 -8 8 -6 8 6 0 13 -8 17 -37 16 -35
-2 -35 -2 -8 -6z"/>
<path d="M4370 915 c-21 -22 -22 -27 -10 -50 23 -43 38 -31 44 34 5 48 -2 50
-34 16z"/>
<path d="M5413 903 c9 -2 17 -8 17 -13 0 -5 -8 -14 -17 -19 -10 -6 -13 -11 -6
-11 14 0 43 27 43 41 0 5 -12 8 -27 8 -17 -1 -21 -3 -10 -6z"/>
<path d="M5470 887 c0 -29 14 -36 24 -12 3 8 11 15 17 15 9 0 9 -4 0 -14 -8
-10 -9 -16 -1 -21 5 -3 10 -14 10 -24 0 -14 9 -20 35 -23 19 -2 35 0 35 4 0 4
-13 8 -30 8 -30 0 -41 15 -17 22 16 6 16 56 -1 63 -7 3 -21 1 -31 -5 -12 -6
-22 -5 -29 2 -9 9 -12 5 -12 -15z m75 -27 c-3 -5 -10 -10 -16 -10 -5 0 -9 5
-9 10 0 6 7 10 16 10 8 0 12 -4 9 -10z"/>
<path d="M5581 873 c0 -29 2 -33 8 -18 7 18 4 55 -5 55 -2 0 -4 -17 -3 -37z"/>
<path d="M5664 902 c-12 -7 -11 -72 1 -91 3 -6 21 -11 38 -10 18 0 25 3 17 6
-8 2 -22 7 -30 10 -13 4 -13 6 1 16 15 11 17 32 5 63 -6 16 -15 17 -32 6z"/>
<path d="M5724 873 c6 -51 6 -51 15 -29 9 24 2 66 -10 66 -5 0 -8 -17 -5 -37z"/>
<path d="M5833 898 c-13 -18 -11 -40 5 -45 8 -3 12 6 12 26 0 34 -3 37 -17 19z"/>
<path d="M4433 866 c-18 -39 -12 -66 15 -66 25 0 57 67 41 86 -19 23 -38 16
-56 -20z m31 -20 c-3 -9 -10 -16 -15 -16 -6 0 -5 9 1 21 13 24 24 20 14 -5z"/>
<path d="M5780 890 c13 -9 12 -12 -4 -25 -23 -17 -14 -20 15 -5 26 15 24 40
-3 40 -19 0 -20 -2 -8 -10z"/>
<path d="M5870 875 c0 -20 5 -25 25 -25 20 0 25 5 25 25 0 20 -5 25 -25 25
-20 0 -25 -5 -25 -25z m32 0 c0 -5 -5 -11 -11 -13 -6 -2 -11 4 -11 13 0 9 5
15 11 13 6 -2 11 -8 11 -13z"/>
<path d="M5940 868 c0 -40 14 -51 23 -18 3 10 -1 27 -9 37 -12 16 -13 14 -14
-19z"/>
<path d="M5985 873 c2 -16 4 -38 4 -50 1 -18 7 -23 29 -23 24 1 25 2 8 11 -15
9 -16 13 -5 20 11 7 10 9 -3 9 -13 0 -18 8 -18 30 0 17 -4 30 -9 30 -5 0 -8
-12 -6 -27z"/>
<path d="M5356 882 c-2 -4 2 -16 10 -27 13 -18 14 -18 14 8 0 25 -13 36 -24
19z"/>
<path d="M5417 843 c-15 -14 -6 -33 18 -39 29 -7 56 11 48 32 -5 14 -54 20
-66 7z m47 -12 c7 -11 -14 -20 -31 -13 -7 2 -10 8 -7 13 7 12 31 12 38 0z"/>
<path d="M5775 831 c-11 -19 5 -31 41 -31 28 0 35 4 32 18 -4 19 -62 30 -73
13z m60 -11 c4 -6 -5 -10 -19 -10 -14 0 -26 5 -26 10 0 6 9 10 19 10 11 0 23
-4 26 -10z"/>
<path d="M5880 816 c0 -12 9 -16 43 -15 34 2 36 3 12 6 -16 3 -36 9 -42 15
-10 8 -13 6 -13 -6z"/>
<path d="M4345 811 c-2 -5 1 -14 9 -20 10 -9 15 -8 19 3 6 15 -19 31 -28 17z"/>
<path d="M5348 813 c6 -2 18 -2 25 0 6 3 1 5 -13 5 -14 0 -19 -2 -12 -5z"/>
<path d="M4346 762 c-2 -4 0 -14 6 -22 8 -12 9 -12 5 2 -3 9 -1 19 6 22 9 3 9
5 0 5 -6 1 -14 -3 -17 -7z"/>
<path d="M4405 744 c-9 -15 -12 -24 -7 -20 6 3 12 0 15 -6 2 -7 6 2 9 20 2 17
4 32 2 32 -1 0 -9 -12 -19 -26z"/>
<path d="M4451 703 c-10 -26 -10 -27 4 -9 8 11 15 23 15 28 0 15 -7 8 -19 -19z"/>
<path d="M5563 680 c-53 -22 -68 -105 -25 -144 29 -25 78 -31 107 -12 54 36
52 105 -5 144 -36 24 -44 25 -77 12z m66 -66 c19 -6 3 -20 -30 -28 -18 -4 -31
-1 -39 9 -25 30 6 39 69 19z"/>
<path d="M5837 668 c-48 -37 -40 -126 15 -154 77 -40 153 38 113 116 -24 46
-91 65 -128 38z m113 -90 c0 -29 -28 -58 -57 -58 -41 0 -63 18 -63 50 0 30 0
30 60 30 55 0 60 -2 60 -22z"/>
<path d="M6120 652 c-30 -30 -42 -84 -21 -96 11 -7 21 17 21 49 0 35 25 51 53
32 20 -13 26 -13 42 -1 23 17 12 31 -32 40 -27 5 -37 1 -63 -24z"/>
<path d="M6239 612 c-14 -17 -14 -19 8 -29 25 -12 28 -5 15 30 -7 16 -8 16
-23 -1z"/>
<path d="M6145 600 c3 -5 10 -10 16 -10 5 0 9 5 9 10 0 6 -7 10 -16 10 -8 0
-12 -4 -9 -10z"/>
<path d="M6205 535 c-5 -2 -23 -6 -38 -9 -35 -8 -25 -26 14 -26 34 0 69 16 69
30 0 10 -24 12 -45 5z"/>
<path d="M4140 500 c0 -5 5 -10 10 -10 6 0 10 5 10 10 0 6 -4 10 -10 10 -5 0
-10 -4 -10 -10z"/>
<path d="M4280 430 c0 -5 7 -10 16 -10 8 0 12 5 9 10 -3 6 -10 10 -16 10 -5 0
-9 -4 -9 -10z"/>
<path d="M4420 350 c0 -5 7 -10 16 -10 8 0 12 5 9 10 -3 6 -10 10 -16 10 -5 0
-9 -4 -9 -10z"/>
<path d="M5641 314 c0 -11 3 -14 6 -6 3 7 2 16 -1 19 -3 4 -6 -2 -5 -13z"/>
<path d="M5678 313 c7 -3 16 -2 19 1 4 3 -2 6 -13 5 -11 0 -14 -3 -6 -6z"/>
<path d="M5860 205 c0 -15 6 -25 14 -25 19 0 28 14 20 34 -10 25 -34 19 -34
-9z"/>
<path d="M5930 214 c0 -8 5 -12 10 -9 6 3 10 10 10 16 0 5 -4 9 -10 9 -5 0
-10 -7 -10 -16z"/>
<path d="M5961 214 c0 -11 3 -14 6 -6 3 7 2 16 -1 19 -3 4 -6 -2 -5 -13z"/>
<path d="M5991 214 c0 -11 3 -14 6 -6 3 7 2 16 -1 19 -3 4 -6 -2 -5 -13z"/>
<path d="M6042 210 c0 -14 2 -19 5 -12 2 6 2 18 0 25 -3 6 -5 1 -5 -13z"/>
<path d="M5810 208 c0 -12 7 -18 23 -17 15 0 17 2 7 6 -8 3 -18 11 -22 17 -5
7 -8 4 -8 -6z"/>
<path d="M6071 204 c0 -11 3 -14 6 -6 3 7 2 16 -1 19 -3 4 -6 -2 -5 -13z"/>
<path d="M6105 210 c4 -6 11 -8 16 -5 14 9 11 15 -7 15 -8 0 -12 -5 -9 -10z"/>
<path d="M820 200 c0 -5 5 -10 10 -10 6 0 10 5 10 10 0 6 -4 10 -10 10 -5 0
-10 -4 -10 -10z"/>
<path d="M4190 190 c0 -13 5 -20 13 -17 6 2 12 10 12 17 0 7 -6 15 -12 18 -8
2 -13 -5 -13 -18z"/>
<path d="M6120 190 c-12 -8 -10 -10 8 -10 13 0 20 4 17 10 -7 12 -6 12 -25 0z"/>
<path d="M5022 158 c2 -17 9 -34 17 -36 8 -3 11 0 7 6 -3 6 -2 12 4 14 15 5 0
48 -17 48 -10 0 -13 -9 -11 -32z"/>
<path d="M5085 161 c-3 -6 3 -9 14 -8 11 0 17 5 15 9 -7 11 -22 10 -29 -1z"/>
<path d="M5163 145 c0 -14 7 -25 18 -28 11 -3 19 0 19 7 0 6 -8 19 -19 28 -17
15 -18 14 -18 -7z"/>
<path d="M5650 125 c0 -8 5 -15 10 -15 6 0 10 7 10 15 0 8 -4 15 -10 15 -5 0
-10 -7 -10 -15z"/>
<path d="M5713 134 c-12 -6 -7 -34 7 -34 4 0 10 9 13 20 5 20 2 22 -20 14z"/>
<path d="M5844 124 c3 -9 6 -18 6 -20 0 -3 4 -3 10 1 11 7 2 35 -12 35 -6 0
-7 -7 -4 -16z"/>
<path d="M5950 115 c0 -18 5 -25 20 -25 21 0 24 8 14 34 -10 25 -34 19 -34 -9z"/>
<path d="M5095 120 c3 -5 11 -10 16 -10 6 0 7 5 4 10 -3 6 -11 10 -16 10 -6 0
-7 -4 -4 -10z"/>
<path d="M6068 123 c-10 -2 -18 -9 -18 -14 0 -15 43 -7 48 9 4 12 0 13 -30 5z"/>
<path d="M5780 100 c0 -5 6 -10 14 -10 8 0 18 5 21 10 3 6 -3 10 -14 10 -12 0
-21 -4 -21 -10z"/>
<path d="M5905 100 c-3 -5 -1 -10 4 -10 6 0 11 5 11 10 0 6 -2 10 -4 10 -3 0
-8 -4 -11 -10z"/>
<path d="M5350 70 c0 -18 4 -29 10 -25 6 3 10 15 10 25 0 10 -4 22 -10 25 -6
4 -10 -7 -10 -25z"/>
<path d="M2072 68 c-7 -7 -12 -25 -12 -40 0 -25 4 -28 31 -28 26 0 30 3 24 18
-4 9 -10 27 -12 40 -6 25 -14 27 -31 10z"/>
<path d="M6610 70 c0 -5 5 -10 11 -10 5 0 7 5 4 10 -3 6 -8 10 -11 10 -2 0 -4
-4 -4 -10z"/>
<path d="M5657 43 c-4 -3 -7 -13 -6 -22 0 -12 3 -11 9 4 7 16 9 17 9 3 1 -25
91 -21 91 4 0 15 -3 16 -27 5 -21 -9 -27 -9 -31 1 -4 13 -34 17 -45 5z"/>
<path d="M5790 24 c0 -9 7 -14 17 -12 25 5 28 28 4 28 -12 0 -21 -6 -21 -16z"/>
<path d="M5853 33 c-15 -5 -17 -23 -4 -23 5 0 11 7 15 15 3 8 4 15 3 14 -1 0
-8 -3 -14 -6z"/>
<path d="M5906 23 c-6 -14 -5 -15 5 -6 7 7 10 15 7 18 -3 3 -9 -2 -12 -12z"/>
<path d="M1920 15 c0 -8 4 -15 10 -15 5 0 7 7 4 15 -4 8 -8 15 -10 15 -2 0 -4
-7 -4 -15z"/>
<path d="M5010 15 c0 -8 7 -15 15 -15 8 0 15 7 15 15 0 8 -7 15 -15 15 -8 0
-15 -7 -15 -15z"/>
<path d="M5875 10 c3 -5 8 -10 11 -10 2 0 4 5 4 10 0 6 -5 10 -11 10 -5 0 -7
-4 -4 -10z"/>
</g>
</svg>
